<svg width="54" height="54" viewBox="0 0 54 54" fill="none" xmlns="http://www.w3.org/2000/svg">
<g id="Digital_gerb_russia 1" clip-path="url(#clip0_33_1490)">
<g id="Page-1">
<g id="&#208;&#147;&#208;&#181;&#209;&#128;&#208;&#177;">
<g id="logo_slider">
<path id="Shape" fill-rule="evenodd" clip-rule="evenodd" d="M36.6037 18.3161C35.7807 17.5945 34.597 17.611 33.9178 17.8207C34.3628 17.2743 35.3989 16.8264 35.7044 16.772C35.9369 16.8592 36.6037 17.5446 36.6037 18.3161ZM39.2316 15.3281C38.6904 12.4327 31.9614 14.3511 28.5727 13.1213C28.5077 13.9653 29.6159 15.3178 30.6759 15.8184C28.8639 17.3908 27.2372 20.5591 26.909 24.4299C26.5817 20.5591 24.9549 17.3908 23.1431 15.8184C24.203 15.3178 25.3121 13.9653 25.2463 13.1213C21.8576 14.3511 15.1285 12.4327 14.5862 15.3281C14.4722 15.9408 14.767 16.8748 15.0856 17.1432C15.1425 16.949 15.44 16.3137 16.378 16.1713C21.1188 15.455 25.0769 22.7616 21.5041 25.7158C21.4497 25.7607 21.4802 25.8437 21.554 25.8437H32.2656C32.3385 25.8437 32.3693 25.7607 32.3157 25.7158C28.7419 22.7616 32.7 15.455 37.4408 16.1713C38.3797 16.3137 38.6761 16.949 38.7333 17.1431C39.0518 16.8748 39.3466 15.941 39.2316 15.3281ZM40.3847 8.68262C40.2996 8.40908 43.0793 8.40223 43.0793 10.142C43.0793 11.3081 41.4166 11.8604 41.4166 13.0704C41.4166 13.634 42.0229 14.0474 42.2089 14.0474C41.7807 12.1047 43.5515 13.1213 44.0296 13.4847C43.0794 10.8721 45.2186 10.8886 45.008 9.69069C44.8615 8.85349 43.0022 9.10642 42.3292 8.68262C41.135 7.93094 39.7224 5.00601 38.7913 7.93094C40.5269 9.54233 39.517 11.9139 37.3138 11.9139C37.3138 11.9139 37.3014 12.2617 37.3216 12.2893C39.9496 12.1606 40.8655 10.2293 40.3847 8.68262ZM9.72524 13.4847C10.2035 13.1213 11.9741 12.1047 11.5469 14.0474C11.732 14.0474 12.3383 13.634 12.3383 13.0704C12.3383 11.8604 10.6755 11.3081 10.6755 10.142C10.6755 8.40215 13.4553 8.40908 13.3701 8.68262C12.8901 10.2292 13.8063 12.1607 16.4341 12.2893C16.4534 12.2617 16.4412 11.9139 16.4412 11.9139C14.2388 11.9139 13.2288 9.54217 14.9636 7.93094C14.0326 5.00601 12.6199 7.93094 11.4258 8.68262C10.7529 9.1065 8.89348 8.85349 8.74694 9.69069C8.53714 10.8886 10.6755 10.8722 9.72524 13.4847ZM17.187 18.316C18.0108 17.5945 19.1945 17.611 19.8729 17.8206C19.4297 17.2742 18.3918 16.8263 18.0873 16.7719C17.8547 16.8591 17.187 17.5445 17.187 18.316ZM28.1593 2.11902L26.8774 0.55603L25.5955 2.11902L26.8775 3.76398L28.1593 2.11902ZM35.4772 6.84518L34.5655 5.73436L33.6547 6.84518L34.5655 7.93085L35.4772 6.84518ZM42.8714 38.9524L41.7158 37.7294L40.5602 38.9524L41.7158 40.0251L42.8714 38.9524ZM20.1009 6.84502L19.1892 5.73419L18.2784 6.84502L19.1892 7.93077L20.1009 6.84502ZM17.4896 12.2891H20.8897C23.7484 12.2891 25.0348 10.5346 25.4234 9.01298H28.3322C28.7209 10.5347 30.0063 12.2892 32.8659 12.2892H36.266C36.266 12.2892 36.8608 11.4823 37.0099 11.0827C37.547 9.64484 36.8608 8.97422 35.8596 8.97422L34.5654 10.1471L33.2712 8.97422C32.27 8.97422 31.5839 9.64484 32.1209 11.0827C32.1894 11.2666 32.3535 11.5366 32.5087 11.774C31.3022 11.6082 29.7623 10.7824 29.4245 9.01298C29.4245 9.01298 30.3159 7.59678 30.5397 7.02372C31.3435 4.96288 30.3169 4.1204 28.8156 4.1204L26.8773 6.39895L24.9392 4.1204C23.4379 4.1204 22.4112 4.9628 23.2159 7.02372C23.4389 7.59686 24.3311 9.01306 24.3311 9.01306C23.9925 10.7825 22.4526 11.6083 21.2461 11.774C21.4023 11.5367 21.5655 11.2666 21.6339 11.0828C22.1699 9.64492 21.4856 8.9743 20.4835 8.9743L19.1894 10.1472L17.8952 8.9743C16.8932 8.9743 16.2088 9.64492 16.745 11.0828C16.8941 11.4824 17.4896 12.2891 17.4896 12.2891ZM52.6424 22.8288C51.986 23.1611 48.1359 24.9648 43.2038 24.2977C43.2549 24.0624 43.2982 23.8255 43.3337 23.5874C46.6162 23.1947 49.2845 22.638 50.9849 21.6921C52.9232 20.6133 53.7708 18.038 52.7924 16.122C52.7671 16.0737 52.6969 16.0651 52.6618 16.1055C52.1258 16.7227 48.7545 20.3898 43.4434 21.5298C43.4298 21.2548 43.4047 20.9804 43.368 20.7074C45.9475 19.2444 48.4659 17.5588 49.6654 16.0175C51.4783 13.6872 51.3114 10.7149 49.5865 9.19936C49.5686 9.18399 49.5449 9.17709 49.5215 9.1804C49.4982 9.18372 49.4773 9.19693 49.4644 9.21667C48.9187 10.1168 43.8103 18.3736 38.2017 21.938C38.1333 21.9818 38.0643 22.0246 37.9947 22.0666C37.8341 22.1642 37.8166 22.373 37.9535 22.4973C38.6 23.0833 39.002 23.8989 39.002 24.8043C39.002 26.3784 37.7885 27.6876 36.1845 27.9716C35.3693 28.1295 34.1926 28.0837 33.0625 27.7101C33.0116 27.6936 32.959 27.7273 32.959 27.7783V32.7642C32.959 32.8443 33.081 32.8642 33.1099 32.7873C33.7968 30.9672 35.8535 30.5805 36.753 30.5805C37.0768 32.5259 37.6549 34.1373 38.4061 35.0046C39.629 36.4139 41.6262 36.3941 42.4923 35.4197C42.5066 35.4036 42.5127 35.3818 42.5089 35.3606C42.5051 35.3394 42.4919 35.321 42.4729 35.3108C41.9641 35.0184 39.0527 33.231 38.47 30.3018C38.7 30.2224 38.9245 30.1326 39.1396 30.0264C40.0793 31.5817 41.4472 32.9669 42.5484 33.4959C44.3981 34.3833 46.0914 33.9516 46.8426 32.6528C46.8698 32.607 46.8365 32.55 46.7811 32.5449C45.637 32.4534 42.1255 31.447 40.6303 28.9951C40.8015 28.838 40.969 28.674 41.1252 28.4997C42.6896 29.6907 44.9018 30.7436 46.4856 30.9585C48.3386 31.2105 50.4383 30.6193 50.4893 28.4643C50.4901 28.4211 50.4515 28.3857 50.406 28.3884C49.7469 28.428 45.3852 28.6179 42.2773 26.8339C42.3853 26.6287 42.4859 26.4197 42.5791 26.2074C42.5791 26.2074 47.2753 27.3174 49.5004 26.9496C51.7115 26.5846 53.0067 24.9361 52.7566 22.8856C52.7496 22.8345 52.6898 22.8046 52.6424 22.8288ZM11.1756 26.2076C11.269 26.42 11.37 26.629 11.4782 26.8342C8.3713 28.6173 4.01129 28.4291 3.34974 28.3887C3.30323 28.386 3.26464 28.4231 3.26546 28.4654C3.31742 30.6196 5.41619 31.2107 7.26922 30.9587C8.85225 30.7438 11.0652 29.6909 12.6295 28.4999C12.7866 28.6743 12.9534 28.8382 13.1243 28.9953C11.6284 31.447 8.1178 32.4535 6.97358 32.545C6.91832 32.5501 6.88583 32.6071 6.91222 32.6529C7.66333 33.9517 9.35678 34.3833 11.2073 33.496C12.3077 32.967 13.6756 31.5818 14.6153 30.0266C14.8311 30.1327 15.0557 30.2225 15.2847 30.3019C14.7021 33.2311 11.7908 35.0185 11.2818 35.3109C11.263 35.3213 11.2499 35.3396 11.2462 35.3607C11.2424 35.3819 11.2484 35.4036 11.2625 35.4198C12.1286 36.3942 14.1266 36.414 15.3495 35.0046C16.1008 34.1373 16.6781 32.5259 17.0018 30.5806C17.9021 30.5806 19.9579 30.9674 20.6449 32.7874C20.6747 32.8643 20.7966 32.8443 20.7966 32.7642V27.7783C20.7966 27.7274 20.7432 27.6937 20.6923 27.7101C19.5622 28.0837 18.3856 28.1296 17.5713 27.9716C15.9665 27.6877 14.753 26.3785 14.753 24.8043C14.753 23.8988 15.1557 23.0824 15.8015 22.4964C15.9392 22.3729 15.9208 22.164 15.7611 22.0665C15.6909 22.0245 15.6213 21.9816 15.5522 21.9379C9.94715 18.3753 4.84132 10.1245 4.29118 9.21824C4.26562 9.17593 4.20426 9.16736 4.16649 9.2001C2.4441 10.7165 2.27652 13.6879 4.0893 16.0174C5.28878 17.5587 7.8069 19.2443 10.3858 20.7072C10.3494 20.9802 10.3245 21.2546 10.3112 21.5296C5.00452 20.3904 1.63601 16.7292 1.09461 16.1079C1.05866 16.0656 0.986581 16.0743 0.962088 16.1226C-0.0143163 18.0394 0.833193 20.6131 2.76976 21.6919C4.47022 22.6378 7.13851 23.1944 10.421 23.5871C10.4565 23.8253 10.4998 24.0622 10.5508 24.2974C5.62401 24.9638 1.77554 23.1643 1.11399 22.8294C1.06484 22.8044 1.00514 22.8355 0.999033 22.8872C0.749984 24.9379 2.04405 26.5846 4.25523 26.9496C6.47952 27.3174 11.1756 26.2076 11.1756 26.2076ZM41.7157 41.6002L40.0047 40.2538C39.322 40.6604 38.8201 41.3061 38.6253 42.0629C37.5961 42.207 34.79 41.5839 35.0628 41.1706C38.1383 36.8449 35.7858 34.2695 32.9588 34.4128V37.3179C32.9588 38.2509 32.1445 39.0068 31.1416 39.0068H29.1894C27.789 39.0068 26.8773 40.4145 26.8773 40.4145C26.8773 40.4145 25.9658 39.0068 24.5654 39.0068H22.613C21.6094 39.0068 20.7969 38.2509 20.7969 37.3179V34.4129C17.9698 34.2697 15.6155 36.845 18.6919 41.1707C18.9622 41.5797 16.078 42.2348 14.725 42.0691C14.3688 41.6996 13.8545 41.4666 13.2789 41.4666C13.0342 41.4667 12.7915 41.5103 12.562 41.5953C12.562 41.5953 7.24572 36.5619 7.14832 36.5127L7.19219 36.4109C7.49485 35.8447 7.03163 35.2276 6.73863 35.2708C7.07897 34.8626 7.09488 33.0752 5.20656 32.6618C5.26182 33.0208 5.28985 33.7536 5.28985 33.7536C5.28985 33.7536 3.8325 32.9656 3.1007 33.6456C2.45762 34.4069 3.34999 35.7877 3.34999 35.7877C3.34999 35.7877 2.60416 35.8059 2.23653 35.7748C2.7771 37.6027 4.58988 37.4733 4.98209 37.1126C4.95652 37.4034 5.61213 37.8177 6.16746 37.4853L6.4114 37.3671C6.45445 37.4249 11.6322 42.3168 11.6322 42.3168C11.3944 42.6697 11.2812 43.103 11.3592 43.5648C11.4821 44.2863 12.0833 44.8844 12.8511 45.0397C13.3932 45.1485 13.903 45.0431 14.3119 44.8041L15.6825 46.0763C15.8045 46.1868 15.9694 46.2557 16.1536 46.2429C16.4888 46.2203 16.7398 45.9485 16.7144 45.637C16.7038 45.4963 16.6319 45.3756 16.5327 45.284C16.5108 45.2598 15.1367 43.9842 15.1367 43.9842C16.2702 43.1892 18.3823 42.6293 20.1353 42.6293C20.4433 42.6293 20.5881 42.3687 20.4819 42.113C19.6878 40.2031 21.3953 38.8197 23.1616 39.946C23.9321 40.437 24.7148 41.4045 25.3044 43.0184C22.4062 43.7202 18.7675 45.6532 18.0314 47.7635C17.7479 48.5783 18.6842 49.689 19.8213 49.9126C19.8414 49.9171 19.8625 49.9133 19.8798 49.9021C19.8971 49.8909 19.9092 49.8732 19.9134 49.853C20.5075 46.7028 23.8952 44.3552 25.658 43.9565C25.7467 44.1938 25.7177 44.117 25.8063 44.3535C23.8865 45.2614 22.0246 47.1765 21.4928 49.4532C21.2489 50.4958 22.4115 51.4357 23.3714 51.693C23.4196 51.7059 23.4671 51.6722 23.4697 51.6256C23.6522 48.7465 24.9236 46.3014 26.0625 45.1889C26.0937 45.4064 26.1171 45.6249 26.1327 45.844C26.1327 45.844 24.9666 49.0934 24.9666 51.4642C24.9666 52.5671 26.6057 53.337 26.8479 53.4449C27.1505 53.337 28.7887 52.5671 28.7887 51.4642C28.7887 49.0933 27.6226 45.844 27.6226 45.844C27.6385 45.6248 27.6622 45.4064 27.6937 45.1889C28.8318 46.3014 30.104 48.7456 30.2857 51.6246C30.2883 51.6713 30.3365 51.7059 30.3838 51.6929C31.3447 51.4358 32.5065 50.4959 32.2634 49.4534C31.7306 47.1766 29.8697 45.2616 27.9498 44.3536C28.0375 44.1171 28.0086 44.1939 28.0972 43.9566C29.8609 44.3553 33.2478 46.7027 33.8419 49.8529C33.8461 49.8731 33.8583 49.8907 33.8756 49.9019C33.8929 49.9131 33.9139 49.9169 33.9341 49.9125C35.0703 49.6891 36.0083 48.5782 35.7231 47.7636C34.9887 45.6533 31.3491 43.7203 28.4509 43.0185C29.0414 41.4046 29.824 40.4371 30.5944 39.946C32.3599 38.8198 34.0673 40.2033 33.2733 42.1133C33.167 42.3687 33.3109 42.6293 33.6199 42.6293C35.6028 42.6293 38.0455 43.3456 39.0123 44.3062C39.6302 45.2331 40.7717 45.8261 42.0598 45.6991C43.5234 45.5559 44.7167 44.4563 44.8817 43.0971C45.0256 41.906 44.4096 40.8367 43.4278 40.2541L41.7157 41.6002ZM29.1042 32.9238C29.7141 32.6979 30.6696 32.8808 30.6371 33.761C30.6293 33.9604 30.9093 33.9604 30.9294 33.7567C31.1119 32.4389 30.2212 32.059 29.2895 32.2136C29.1737 31.7604 29.0789 31.3643 28.971 30.9716C28.885 30.6541 28.8534 30.0576 29.2211 30.0576C29.4194 30.0576 29.3396 30.6126 29.3212 30.8516C29.3045 31.0613 29.3799 31.1882 29.5502 31.1943C29.6564 31.1986 29.789 31.0631 29.8679 30.9733C30.4014 30.37 30.5251 29.4362 29.9004 28.9858C29.3775 28.6077 28.0683 28.8891 27.7084 29.4276C27.6541 29.2247 27.3944 28.8899 27.2697 28.7439C27.1487 28.6017 27.1171 28.5041 27.2847 28.379C27.3637 28.3186 27.6024 28.0813 27.6024 27.8361C27.6024 27.6912 27.49 27.4236 27.133 27.4236C26.8512 27.4236 26.538 27.6187 26.538 28.0536C26.538 28.1503 26.5617 28.254 26.624 28.3653C26.4458 28.3359 25.9624 28.348 25.7141 28.4093L29.1475 37.8313C30.1303 37.3462 30.8506 36.5781 30.8506 35.7539C30.8506 35.0513 29.816 35.2844 29.3133 35.8324C29.1518 34.9418 29.0079 34.1193 28.8509 33.2993C28.808 33.0732 28.9226 32.992 29.1042 32.9238ZM24.2494 26.5236L24.9707 28.5275C24.353 28.6743 23.3598 29.1248 23.3598 29.7211C23.3598 30.5152 24.7645 31.0321 25.5771 30.97C25.5366 31.1512 25.5832 31.3126 25.7096 31.4601C25.4148 31.4601 24.8585 31.5974 24.6759 31.7941C24.2451 31.3928 23.5712 31.247 23.2509 31.4912C22.929 31.7372 22.9194 32.1541 23.2554 32.6253C23.4896 32.9515 23.5774 33.2735 23.3142 33.6514C24.2934 33.6514 23.9327 32.3785 24.3161 32.3785C24.2662 32.6253 24.2968 32.911 24.4083 33.2277C24.4821 33.4383 24.4821 33.5876 24.3557 33.7904C24.0399 34.2953 23.5485 35.4552 23.6152 36.5039C23.294 36.5021 23.1308 36.4235 23.2441 35.9852C23.2861 35.8219 23.1853 35.7054 23.0519 35.9066C22.9045 36.1284 22.8334 36.5073 22.8334 36.6694C22.8334 37.6033 23.9459 37.7914 24.3706 37.5938C25.5991 38.7826 28.012 38.4655 28.8201 38.0668L24.5716 26.4095C24.4847 26.1895 24.1731 26.2948 24.2494 26.5236ZM24.102 36.1259C24.0142 35.6459 24.682 34.7881 25.5314 33.9604C25.3506 34.4998 25.4629 35.4293 25.8174 35.7496C25.2013 35.7496 24.4695 35.8652 24.102 36.1259Z" fill="#111111"/>
</g>
</g>
</g>
</g>
<defs>
<clipPath id="clip0_33_1490">
<rect width="52.8889" height="52.8889" fill="white" transform="translate(0.554688 0.55603)"/>
</clipPath>
</defs>
</svg>
