<svg width="14" height="16" viewBox="0 0 14 16" fill="none" xmlns="http://www.w3.org/2000/svg">
<path d="M12.6875 7.75049C12.6875 5.72705 11.5938 3.86768 9.84375 2.82861C8.06641 1.81689 5.90625 1.81689 4.15625 2.82861C2.37891 3.86768 1.3125 5.72705 1.3125 7.75049C1.3125 9.80127 2.37891 11.6606 4.15625 12.6997C5.90625 13.7114 8.06641 13.7114 9.84375 12.6997C11.5938 11.6606 12.6875 9.80127 12.6875 7.75049ZM0 7.75049C0 5.26221 1.3125 2.96533 3.5 1.70752C5.66016 0.449707 8.3125 0.449707 10.5 1.70752C12.6602 2.96533 14 5.26221 14 7.75049C14 10.2661 12.6602 12.563 10.5 13.8208C8.3125 15.0786 5.66016 15.0786 3.5 13.8208C1.3125 12.563 0 10.2661 0 7.75049ZM6.37109 8.37939L2.35156 7.44971L10.0898 4.66064L7.30078 12.3989L6.37109 8.37939Z" fill="#99958F"/>
</svg>
