<svg width="252" height="52" viewBox="0 0 252 52" fill="none" xmlns="http://www.w3.org/2000/svg">
<rect width="52" height="52" rx="26" fill="#99958F"/>
<g clip-path="url(#clip0_774_5193)">
<path d="M30.125 20.249C30.125 18.7881 29.3086 17.4561 28.0625 16.6826C26.7734 15.9521 25.1836 15.9521 23.9375 16.6826C22.6484 17.4561 21.875 18.7881 21.875 20.249C21.875 21.7529 22.6484 23.085 23.9375 23.8584C25.1836 24.5889 26.7734 24.5889 28.0625 23.8584C29.3086 23.085 30.125 21.7529 30.125 20.249ZM20.5 20.249C20.5 18.3154 21.5312 16.5107 23.25 15.5225C24.9258 14.5342 27.0312 14.5342 28.75 15.5225C30.4258 16.5107 31.5 18.3154 31.5 20.249C31.5 22.2256 30.4258 24.0303 28.75 25.0186C27.0312 26.0068 24.9258 26.0068 23.25 25.0186C21.5312 24.0303 20.5 22.2256 20.5 20.249ZM18.2227 35.374H33.7344L31.8438 29.1865H20.1133L18.2227 35.374ZM19.125 27.8115H32.875L35.1953 35.374L35.625 36.749H34.1641H17.793H16.375L16.7617 35.374L19.125 27.8115Z" fill="white"/>
</g>
<path d="M75.02 22L71.546 11.02V22H69.53V8.95H72.824L76.082 19.606L79.34 8.95H82.634V22H80.618V11.02L77.144 22H75.02ZM85.5219 22V12.316H87.3579V19.318L92.0919 12.316H93.9279V22H92.0919V15.016L87.3579 22H85.5219ZM101.095 16.942L104.677 22H102.445L99.9788 18.508L97.5128 22H95.4068L98.9528 17.05L95.6228 12.316H97.8368L100.069 15.484L102.337 12.316H104.407L101.095 16.942ZM105.247 19.39C105.247 17.032 108.019 16.402 111.781 16.006V15.808C111.781 14.098 110.881 13.522 109.693 13.522C108.397 13.522 107.659 14.188 107.587 15.376H105.697C105.859 13.324 107.551 12.082 109.765 12.082C112.267 12.082 113.707 13.288 113.671 16.186C113.671 16.42 113.635 18.094 113.635 18.508C113.635 19.948 113.725 21.136 113.905 22H112.105C112.033 21.622 111.979 21.334 111.943 20.722C111.367 21.694 110.269 22.234 108.703 22.234C106.741 22.234 105.247 21.154 105.247 19.39ZM111.871 17.392C108.865 17.68 107.281 18.094 107.281 19.354C107.281 20.236 107.983 20.794 109.117 20.794C110.665 20.794 111.871 20.02 111.871 18.094V17.392ZM116.073 22V12.316H117.909V19.318L122.643 12.316H124.479V22H122.643V15.016L117.909 22H116.073ZM135.084 22H133.212V13.81H130.206L130.116 15.628C129.918 19.696 129.072 22 126.552 22H126.21V20.506H126.408C127.56 20.506 128.136 19.048 128.316 15.34L128.46 12.316H135.084V22ZM146.284 8.95C149.308 8.95 151.756 9.544 151.756 12.964C151.756 16.24 149.434 16.942 146.284 16.942H144.142V22H142.09V8.95H146.284ZM144.142 10.642V15.214H146.41C148.228 15.214 149.632 14.998 149.632 12.982C149.632 10.858 148.12 10.642 146.356 10.642H144.142ZM156.833 15.664C159.389 15.664 160.541 16.852 160.541 18.76C160.541 21.19 158.975 22 156.671 22H153.233V12.316H155.105V15.664H156.833ZM162.053 22V12.316H163.925V22H162.053ZM156.617 20.506C157.985 20.506 158.669 19.984 158.669 18.76C158.669 17.572 157.985 17.158 156.599 17.158H155.105V20.506H156.617ZM169.633 17.734H168.499V22H166.627V12.316H168.499V16.24H169.687L172.639 12.316H174.817L171.163 16.942L175.141 22H172.891L169.633 17.734ZM184.466 15.592H182.594C182.396 14.494 181.406 13.738 180.182 13.738C178.832 13.738 177.59 14.8 177.59 17.158C177.59 19.552 178.85 20.632 180.182 20.632C181.37 20.632 182.414 19.93 182.666 18.778H184.556C184.178 20.812 182.288 22.234 180.146 22.234C177.356 22.234 175.592 20.092 175.592 17.176C175.592 14.296 177.41 12.136 180.272 12.136C182.486 12.136 184.178 13.702 184.466 15.592ZM189.409 17.734H188.275V22H186.403V12.316H188.275V16.24H189.463L192.415 12.316H194.593L190.939 16.942L194.917 22H192.667L189.409 17.734ZM196.44 22V12.316H198.276V19.318L203.01 12.316H204.846V22H203.01V15.016L198.276 22H196.44ZM211.887 11.128C209.889 11.128 209.115 10.12 209.007 8.95H210.429C210.501 9.562 210.915 9.994 211.905 9.994C212.895 9.994 213.345 9.562 213.417 8.95H214.821C214.695 10.12 213.939 11.128 211.887 11.128ZM207.567 22V12.316H209.403V19.318L214.137 12.316H215.973V22H214.137V15.016L209.403 22H207.567Z" fill="#111111"/>
<path d="M75.695 44H74.135V37.175H71.63L71.555 38.69C71.39 42.08 70.685 44 68.585 44H68.3V42.755H68.465C69.425 42.755 69.905 41.54 70.055 38.45L70.175 35.93H75.695V44ZM85.1734 39.995C85.1734 42.905 83.1634 44.195 81.2434 44.195C79.3384 44.195 77.3284 42.905 77.3284 39.995C77.3284 37.07 79.3384 35.78 81.2434 35.78C83.1634 35.78 85.1734 37.07 85.1734 39.995ZM81.2434 42.875C82.4284 42.875 83.5234 41.96 83.5234 39.995C83.5234 37.985 82.4284 37.1 81.2434 37.1C80.0734 37.1 78.9784 37.955 78.9784 39.995C78.9784 41.99 80.0734 42.875 81.2434 42.875ZM88.3657 37.175V44H86.8057V35.93H92.1157V37.175H88.3657ZM93.4121 44V35.93H94.9421V41.765L98.8871 35.93H100.417V44H98.8871V38.18L94.9421 44H93.4121ZM109.45 38.66H107.89C107.725 37.745 106.9 37.115 105.88 37.115C104.755 37.115 103.72 38 103.72 39.965C103.72 41.96 104.77 42.86 105.88 42.86C106.87 42.86 107.74 42.275 107.95 41.315H109.525C109.21 43.01 107.635 44.195 105.85 44.195C103.525 44.195 102.055 42.41 102.055 39.98C102.055 37.58 103.57 35.78 105.955 35.78C107.8 35.78 109.21 37.085 109.45 38.66ZM114.237 37.175V44H112.677V37.175H109.827V35.93H117.072V37.175H114.237ZM128.893 44H127.333V37.175H123.493V44H121.933V35.93H128.893V44ZM138.376 39.995C138.376 42.905 136.366 44.195 134.446 44.195C132.541 44.195 130.531 42.905 130.531 39.995C130.531 37.07 132.541 35.78 134.446 35.78C136.366 35.78 138.376 37.07 138.376 39.995ZM134.446 42.875C135.631 42.875 136.726 41.96 136.726 39.995C136.726 37.985 135.631 37.1 134.446 37.1C133.276 37.1 132.181 37.955 132.181 39.995C132.181 41.99 133.276 42.875 134.446 42.875ZM150.289 38.66H148.729C148.564 37.745 147.739 37.115 146.719 37.115C145.594 37.115 144.559 38 144.559 39.965C144.559 41.96 145.609 42.86 146.719 42.86C147.709 42.86 148.579 42.275 148.789 41.315H150.364C150.049 43.01 148.474 44.195 146.689 44.195C144.364 44.195 142.894 42.41 142.894 39.98C142.894 37.58 144.409 35.78 146.794 35.78C148.639 35.78 150.049 37.085 150.289 38.66ZM154.408 40.445H153.463V44H151.903V35.93H153.463V39.2H154.453L156.913 35.93H158.728L155.683 39.785L158.998 44H157.123L154.408 40.445ZM166.838 44H165.278V37.175H162.773L162.698 38.69C162.533 42.08 161.828 44 159.728 44H159.443V42.755H159.608C160.568 42.755 161.048 41.54 161.198 38.45L161.318 35.93H166.838V44ZM168.531 41.825C168.531 39.86 170.841 39.335 173.976 39.005V38.84C173.976 37.415 173.226 36.935 172.236 36.935C171.156 36.935 170.541 37.49 170.481 38.48H168.906C169.041 36.77 170.451 35.735 172.296 35.735C174.381 35.735 175.581 36.74 175.551 39.155C175.551 39.35 175.521 40.745 175.521 41.09C175.521 42.29 175.596 43.28 175.746 44H174.246C174.186 43.685 174.141 43.445 174.111 42.935C173.631 43.745 172.716 44.195 171.411 44.195C169.776 44.195 168.531 43.295 168.531 41.825ZM174.051 40.16C171.546 40.4 170.226 40.745 170.226 41.795C170.226 42.53 170.811 42.995 171.756 42.995C173.046 42.995 174.051 42.35 174.051 40.745V40.16ZM185.413 45.92H183.943V44H178.198V45.92H176.728V42.755H177.118C177.943 42.755 178.333 41.555 178.453 38.51L178.558 35.93H184.258V42.755H185.413V45.92ZM182.698 37.175H180.013L179.908 38.975C179.803 40.835 179.548 42.095 178.918 42.755H182.698V37.175ZM186.431 41.825C186.431 39.86 188.741 39.335 191.876 39.005V38.84C191.876 37.415 191.126 36.935 190.136 36.935C189.056 36.935 188.441 37.49 188.381 38.48H186.806C186.941 36.77 188.351 35.735 190.196 35.735C192.281 35.735 193.481 36.74 193.451 39.155C193.451 39.35 193.421 40.745 193.421 41.09C193.421 42.29 193.496 43.28 193.646 44H192.146C192.086 43.685 192.041 43.445 192.011 42.935C191.531 43.745 190.616 44.195 189.311 44.195C187.676 44.195 186.431 43.295 186.431 41.825ZM191.951 40.16C189.446 40.4 188.126 40.745 188.126 41.795C188.126 42.53 188.711 42.995 189.656 42.995C190.946 42.995 191.951 42.35 191.951 40.745V40.16ZM204.663 44H203.163V37.565L200.643 44H199.473L196.953 37.625V44H195.453V35.93H197.778L200.103 41.93L202.338 35.93H204.663V44Z" fill="#111111"/>
<defs>
<clipPath id="clip0_774_5193">
<rect width="24" height="24" fill="white" transform="translate(14 13.999)"/>
</clipPath>
</defs>
</svg>
