<svg width="24" height="24" viewBox="0 0 24 24" fill="none" xmlns="http://www.w3.org/2000/svg">
<g clip-path="url(#clip0_771_1013)">
<path d="M21.625 13.8125C21.625 16.4766 19.4336 18.625 16.8125 18.625H15.4375H14.75V17.25H15.4375H16.8125C18.7031 17.25 20.25 15.7461 20.25 13.8125V13.125H14.75H13.375V11.75V6.25V4.875H14.75H20.25H21.625V6.25V9V11.75V13.125V13.8125ZM20.25 11.75V9V6.25H14.75V11.75H20.25ZM3.75 11.75H9.25V9V6.25H3.75V11.75ZM10.625 9V11.75V13.125V13.8125C10.625 16.4766 8.43359 18.625 5.8125 18.625H4.4375H3.75V17.25H4.4375H5.8125C7.70312 17.25 9.25 15.7461 9.25 13.8125V13.125H3.75H2.375V11.75V6.25V4.875H3.75H9.25H10.625V6.25V9Z" fill="#99958F"/>
</g>
<defs>
<clipPath id="clip0_771_1013">
<rect width="24" height="24" fill="white"/>
</clipPath>
</defs>
</svg>
