<svg width="16" height="16" viewBox="0 0 16 16" fill="none" xmlns="http://www.w3.org/2000/svg">
<g id="16/icon">
<path id="icon" d="M13.8293 3.5947C13.8782 3.44824 13.8782 3.30178 13.8293 3.1065C13.8293 3.00886 13.7315 2.86239 13.6825 2.81357C13.5358 2.66711 13.2912 2.66711 13.1933 2.66711C12.753 2.66711 12.0191 2.91122 8.64334 4.327C7.46915 4.8152 5.12078 5.79161 1.59823 7.35385C1.01113 7.59795 0.717588 7.79323 0.668664 8.03733C0.61974 8.42789 1.25576 8.57436 1.98962 8.81846C2.62564 9.01374 3.45735 9.25784 3.89767 9.25784C4.28907 9.25784 4.72939 9.11138 5.21863 8.76964C8.49656 6.52391 10.2089 5.40104 10.3068 5.40104C10.4046 5.40104 10.5025 5.35222 10.5514 5.40104C10.6492 5.49868 10.6492 5.59632 10.6003 5.64514C10.5514 5.88925 7.46915 8.72082 7.27346 8.9161C6.58851 9.59958 5.80572 10.039 7.02883 10.8201C8.05625 11.5036 8.64334 11.9429 9.71967 12.6264C10.4046 13.0658 10.9428 13.6028 11.6277 13.554C11.9702 13.5052 12.3127 13.2123 12.4594 12.2847C12.8998 10.1854 13.6825 5.49868 13.8293 3.5947Z" fill="#99958F"/>
</g>
</svg>
