<svg width="36" height="36" viewBox="0 0 36 36" fill="none" xmlns="http://www.w3.org/2000/svg">
<g clip-path="url(#clip0_1570_8830)">
<path d="M18 4.00024C12.9375 4.00024 8.375 6.68774 5.875 11.0002C3.3125 15.3752 3.3125 20.6877 5.875 25.0002C8.375 29.3752 12.9375 32.0002 18 32.0002C23 32.0002 27.5625 29.3752 30.0625 25.0002C32.625 20.6877 32.625 15.3752 30.0625 11.0002C27.5625 6.68774 23 4.00024 18 4.00024ZM18 34.0002C12.25 34.0002 7 31.0002 4.125 26.0002C1.25 21.0627 1.25 15.0002 4.125 10.0002C7 5.06274 12.25 2.00024 18 2.00024C23.6875 2.00024 28.9375 5.06274 31.8125 10.0002C34.6875 15.0002 34.6875 21.0627 31.8125 26.0002C28.9375 31.0002 23.6875 34.0002 18 34.0002ZM19 10.0002V11.0002V19.0002V20.0002H17V19.0002V11.0002V10.0002H19ZM16.5 25.0002V22.0002H19.5V25.0002H16.5Z" fill="#111111"/>
</g>
<defs>
<clipPath id="clip0_1570_8830">
<rect width="36" height="36" fill="white" transform="translate(0 0.000244141)"/>
</clipPath>
</defs>
</svg>
