<svg width="16" height="16" viewBox="0 0 16 16" fill="none" xmlns="http://www.w3.org/2000/svg">
<g id="16/icon">
<path id="icon" d="M12.875 3.06299C14.1875 4.37549 15 6.09424 15 7.96924C15 11.7817 11.8125 14.9067 7.96875 14.9067C6.8125 14.9067 5.6875 14.5942 4.65625 14.063L1 15.0005L1.96875 11.4067C1.375 10.3755 1.03125 9.18799 1.03125 7.93799C1.03125 4.12549 4.15625 1.00049 7.96875 1.00049C9.84375 1.00049 11.5938 1.75049 12.875 3.06299ZM7.96875 13.7192C11.1562 13.7192 13.8125 11.1255 13.8125 7.96924C13.8125 6.40674 13.1562 4.96924 12.0625 3.87549C10.9688 2.78174 9.53125 2.18799 8 2.18799C4.8125 2.18799 2.21875 4.78174 2.21875 7.93799C2.21875 9.03174 2.53125 10.0942 3.09375 11.0317L3.25 11.2505L2.65625 13.3755L4.84375 12.7817L5.03125 12.9067C5.9375 13.438 6.9375 13.7192 7.96875 13.7192ZM11.1562 9.40674C11.3125 9.50049 11.4375 9.53174 11.4688 9.62549C11.5312 9.68799 11.5312 10.0317 11.375 10.438C11.2188 10.8442 10.5312 11.2192 10.2188 11.2505C9.65625 11.3442 9.21875 11.313 8.125 10.813C6.375 10.063 5.25 8.31299 5.15625 8.21924C5.0625 8.09424 4.46875 7.28174 4.46875 6.40674C4.46875 5.56299 4.90625 5.15674 5.0625 4.96924C5.21875 4.78174 5.40625 4.75049 5.53125 4.75049C5.625 4.75049 5.75 4.75049 5.84375 4.75049C5.96875 4.75049 6.09375 4.71924 6.25 5.06299C6.375 5.40674 6.75 6.25049 6.78125 6.34424C6.8125 6.43799 6.84375 6.53174 6.78125 6.65674C6.46875 7.31299 6.09375 7.28174 6.28125 7.59424C6.96875 8.75049 7.625 9.15674 8.65625 9.65674C8.8125 9.75049 8.90625 9.71924 9.03125 9.62549C9.125 9.50049 9.46875 9.09424 9.5625 8.93799C9.6875 8.75049 9.8125 8.78174 9.96875 8.84424C10.125 8.90674 10.9688 9.31299 11.1562 9.40674Z" fill="#99958F"/>
</g>
</svg>
