<svg width="20" height="20" viewBox="0 0 20 20" fill="none" xmlns="http://www.w3.org/2000/svg">
<g id="icon-left">
<path id="icon" d="M16.0938 3.82812C17.7344 5.46875 18.75 7.61719 18.75 9.96094C18.75 14.7266 14.7656 18.6328 9.96094 18.6328C8.51562 18.6328 7.10938 18.2422 5.82031 17.5781L1.25 18.75L2.46094 14.2578C1.71875 12.9688 1.28906 11.4844 1.28906 9.92188C1.28906 5.15625 5.19531 1.25 9.96094 1.25C12.3047 1.25 14.4922 2.1875 16.0938 3.82812ZM9.96094 17.1484C13.9453 17.1484 17.2656 13.9062 17.2656 9.96094C17.2656 8.00781 16.4453 6.21094 15.0781 4.84375C13.7109 3.47656 11.9141 2.73438 10 2.73438C6.01562 2.73438 2.77344 5.97656 2.77344 9.92188C2.77344 11.2891 3.16406 12.6172 3.86719 13.7891L4.0625 14.0625L3.32031 16.7188L6.05469 15.9766L6.28906 16.1328C7.42188 16.7969 8.67188 17.1484 9.96094 17.1484ZM13.9453 11.7578C14.1406 11.875 14.2969 11.9141 14.3359 12.0312C14.4141 12.1094 14.4141 12.5391 14.2188 13.0469C14.0234 13.5547 13.1641 14.0234 12.7734 14.0625C12.0703 14.1797 11.5234 14.1406 10.1562 13.5156C7.96875 12.5781 6.5625 10.3906 6.44531 10.2734C6.32812 10.1172 5.58594 9.10156 5.58594 8.00781C5.58594 6.95312 6.13281 6.44531 6.32812 6.21094C6.52344 5.97656 6.75781 5.9375 6.91406 5.9375C7.03125 5.9375 7.1875 5.9375 7.30469 5.9375C7.46094 5.9375 7.61719 5.89844 7.8125 6.32812C7.96875 6.75781 8.4375 7.8125 8.47656 7.92969C8.51562 8.04688 8.55469 8.16406 8.47656 8.32031C8.08594 9.14062 7.61719 9.10156 7.85156 9.49219C8.71094 10.9375 9.53125 11.4453 10.8203 12.0703C11.0156 12.1875 11.1328 12.1484 11.2891 12.0312C11.4062 11.875 11.8359 11.3672 11.9531 11.1719C12.1094 10.9375 12.2656 10.9766 12.4609 11.0547C12.6562 11.1328 13.7109 11.6406 13.9453 11.7578Z" fill="white"/>
</g>
</svg>
