<svg width="20" height="20" viewBox="0 0 20 20" fill="none" xmlns="http://www.w3.org/2000/svg">
<g id="icon-left">
<path id="icon" d="M17.2881 4.49285C17.3493 4.30978 17.3493 4.1267 17.2881 3.8826C17.2881 3.76055 17.1658 3.57747 17.1047 3.51645C16.9212 3.33337 16.6154 3.33337 16.4931 3.33337C15.9427 3.33337 15.0254 3.6385 10.8056 5.40823C9.33791 6.01848 6.40244 7.23899 1.99925 9.19179C1.26538 9.49692 0.89845 9.74102 0.837295 10.0461C0.776139 10.5343 1.57116 10.7174 2.48849 11.0226C3.28351 11.2667 4.32316 11.5718 4.87356 11.5718C5.3628 11.5718 5.9132 11.3887 6.52475 10.9615C10.6222 8.15437 12.7626 6.75079 12.8849 6.75079C13.0072 6.75079 13.1295 6.68976 13.1907 6.75079C13.313 6.87284 13.313 6.99489 13.2519 7.05591C13.1907 7.36104 9.33791 10.9005 9.09328 11.1446C8.23711 11.999 7.25862 12.5482 8.78751 13.5246C10.0718 14.3789 10.8056 14.9282 12.1511 15.7825C13.0072 16.3317 13.6799 17.003 14.5361 16.942C14.9642 16.881 15.3923 16.5148 15.5758 15.3553C16.1262 12.7313 17.1047 6.87284 17.2881 4.49285Z" fill="white"/>
</g>
</svg>
