<svg width="93" height="40" viewBox="0 0 93 40" fill="none" xmlns="http://www.w3.org/2000/svg">
<g id="logo" clip-path="url(#clip0_532_1922)">
<g id="Union">
<path d="M81.0961 31.8643C81.0161 31.8733 80.9358 31.8822 80.8553 31.8893L80.7639 32.0783C80.9716 32.3691 81.1944 32.6488 81.4317 32.9161L81.5871 33.0763C83.1852 34.7232 84.7762 36.363 86.4175 37.9554C86.7817 38.2875 87.2459 38.4891 87.7372 38.5286C88.9403 38.5854 90.1498 38.535 91.3529 38.4751C92.2191 38.4342 92.2632 38.346 92.2632 37.4704V2.094C92.2852 1.62471 92.049 1.42944 91.5954 1.42944C91.332 1.42944 91.0687 1.41996 90.8057 1.4105C90.5435 1.40107 90.2817 1.39165 90.0206 1.39165H71.2773C71.1352 1.39165 70.994 1.39149 70.8534 1.39135C70.0842 1.39053 69.3309 1.38972 68.5214 1.41369C67.564 1.44203 67.4789 1.54283 67.4789 2.46566C67.489 5.50785 67.2891 8.54708 66.8805 11.5617C66.607 13.7918 66.1861 16.0014 65.6206 18.1759C64.9387 20.8129 63.8665 23.3331 62.4395 25.6531C60.5309 28.6609 57.986 30.8405 54.5655 31.9523C51.7778 32.9132 48.7833 33.1079 45.8947 32.5161C44.2008 32.1563 42.6084 31.4236 41.2332 30.3712C38.9234 28.6043 37.265 26.1211 36.5177 23.3106C35.7705 20.5001 35.9767 17.5212 37.1041 14.8405C38.4143 11.9113 40.4553 9.62156 43.312 8.19479C45.8285 6.9381 48.5529 6.83731 51.2962 7.38849C51.6903 7.46692 52.0774 7.56162 52.4618 7.65565C52.7103 7.71643 52.9576 7.77693 53.2049 7.83258C53.4075 7.89124 53.6243 7.87666 53.8172 7.79143C54.0102 7.70619 54.1669 7.55573 54.26 7.36645C54.5415 6.92307 54.8545 6.4989 55.1677 6.07444C55.275 5.92903 55.3823 5.78358 55.4883 5.63731C55.5814 5.51128 55.675 5.38491 55.7687 5.25824C56.249 4.60931 56.7353 3.9523 57.2017 3.29086C57.6112 2.71448 57.5324 2.47196 56.8647 2.157C56.7799 2.1156 56.6953 2.07377 56.6106 2.03194C56.2959 1.87647 55.9811 1.72094 55.6584 1.58692C53.249 0.569593 50.7324 0.242032 48.1246 0.292426C45.2081 0.326222 42.3428 1.06307 39.7718 2.44046C37.3565 3.77879 35.2483 5.60808 33.5828 7.81054C31.2742 10.7491 29.8411 14.0058 29.5765 17.7664C29.3057 21.073 29.7693 24.3986 30.934 27.505C31.603 29.3258 32.56 31.0272 33.7687 32.5444C35.4875 34.6734 37.6501 36.4018 40.1057 37.609C42.2096 38.6452 44.4049 39.4515 46.7513 39.609C49.7116 39.8565 52.6923 39.576 55.5545 38.7806C58.03 38.0994 60.3609 36.9734 62.4332 35.4578C66.4805 32.4153 69.1135 28.346 70.827 23.6531C71.5419 21.694 72.0836 19.6657 72.6222 17.6468C72.9283 16.4548 73.1608 15.2452 73.3183 14.0247C73.4524 13.0855 73.5534 12.1421 73.6542 11.1993C73.7262 10.5265 73.7981 9.85404 73.8821 9.18377C74.008 8.14125 74.0364 8.14125 75.0474 8.14125H84.8112C84.9971 8.14125 85.1888 8.15826 85.39 8.17612C85.4886 8.18488 85.5895 8.19384 85.6931 8.20109C85.7032 8.36067 85.7157 8.50902 85.7276 8.65028C85.7491 8.90496 85.7687 9.13662 85.7687 9.36959C85.754 15.2783 85.7466 21.1869 85.7466 27.0956C85.7466 27.7397 85.7553 28.383 85.7639 29.0263C85.7726 29.6696 85.7813 30.3129 85.7813 30.957C85.7844 31.6972 85.6553 31.8263 84.912 31.8263H81.6049C81.4356 31.8263 81.2663 31.8452 81.0961 31.8643Z" fill="white"/>
<path d="M27.4743 2.39007C27.6559 2.11906 27.813 1.83235 27.9436 1.53338C27.6939 1.47113 27.4403 1.42588 27.1845 1.39795C25.0837 1.37905 22.9861 1.37905 20.8853 1.37905C20.5441 1.37993 20.209 1.46916 19.9126 1.63806C19.6162 1.80696 19.3686 2.04978 19.194 2.34283C16.0632 6.70818 12.9231 11.0704 9.77349 15.4294L9.77297 15.4301C9.38888 15.9622 9.00481 16.4942 8.59238 17.0042C8.40926 17.1906 8.1784 17.323 7.92509 17.3868C7.67176 17.4507 7.40574 17.4437 7.15616 17.3665C6.81419 17.2282 6.82705 16.9425 6.83955 16.6645C6.84328 16.5814 6.84699 16.4991 6.8412 16.4216C6.80968 16.1253 6.82021 15.8262 6.83073 15.528C6.83597 15.3793 6.8412 15.2308 6.8412 15.083V2.557C6.8412 1.59952 6.75931 1.46724 5.77033 1.46724C4.27742 1.45779 2.7782 1.47669 1.28529 1.50819C0.318359 1.52709 0.318359 1.55858 0.318359 2.50347V37.4641C0.318359 38.3019 0.393947 38.409 1.26324 38.409H5.51521C6.86638 38.409 6.86638 38.4027 6.86638 37.0483V23.505C6.86638 22.4688 6.95774 22.4027 8.0223 22.5098C8.34003 22.5399 8.66043 22.5549 8.98068 22.5699C9.26358 22.5831 9.54634 22.5964 9.82702 22.62C12.457 22.8468 14.5766 23.946 16.0821 26.1759C17.1642 27.7786 17.7997 29.5698 18.4346 31.3595C18.587 31.789 18.7394 32.2185 18.8979 32.6452C19.2117 33.5009 19.5347 34.355 19.8578 35.2095C20.1638 36.0188 20.47 36.8285 20.7688 37.6405C20.8574 37.9188 21.04 38.1577 21.2853 38.3163C21.5306 38.4749 21.8234 38.5433 22.1136 38.5098H24.9483C25.2108 38.5098 25.4732 38.5126 25.7357 38.5154C26.2606 38.521 26.7856 38.5266 27.3105 38.5098C27.868 38.494 28.0947 38.1665 27.9719 37.6184C27.9278 37.4682 27.8741 37.3209 27.8113 37.1775C26.4737 33.7045 25.1436 30.2294 23.8207 26.7523C23.1699 24.9753 22.196 23.3341 20.9483 21.9113C19.4746 20.2884 17.5553 19.1359 15.4302 18.598C15.0982 18.492 14.7722 18.368 14.4538 18.2263C14.489 18.1088 14.5354 17.9949 14.5924 17.8861L20.2302 11.1113C22.6575 8.2116 25.0722 5.30451 27.4743 2.39007Z" fill="white"/>
</g>
</g>
<defs>
<clipPath id="clip0_532_1922">
<rect width="92.5984" height="40" fill="white" transform="translate(0 -0.000488281)"/>
</clipPath>
</defs>
</svg>
